<svg id="visual" viewBox="0 0 960 300" width="960" height="300" xmlns="http://www.w3.org/2000/svg" xmlns:xlink="http://www.w3.org/1999/xlink" version="1.1"><rect x="0" y="0" width="960" height="300" fill="#001220"></rect><path d="M0 217L22.8 209.2C45.7 201.3 91.3 185.7 137 183C182.7 180.3 228.3 190.7 274 187.8C319.7 185 365.3 169 411.2 166.2C457 163.3 503 173.7 548.8 177.8C594.7 182 640.3 180 686 190.2C731.7 200.3 777.3 222.7 823 222.5C868.7 222.3 914.3 199.7 937.2 188.3L960 177L960 0L937.2 0C914.3 0 868.7 0 823 0C777.3 0 731.7 0 686 0C640.3 0 594.7 0 548.8 0C503 0 457 0 411.2 0C365.3 0 319.7 0 274 0C228.3 0 182.7 0 137 0C91.3 0 45.7 0 22.8 0L0 0Z" fill="#fa7268"></path><path d="M0 141L22.8 145.3C45.7 149.7 91.3 158.3 137 166.7C182.7 175 228.3 183 274 175.8C319.7 168.7 365.3 146.3 411.2 145.5C457 144.7 503 165.3 548.8 167.8C594.7 170.3 640.3 154.7 686 141.5C731.7 128.3 777.3 117.7 823 115.8C868.7 114 914.3 121 937.2 124.5L960 128L960 0L937.2 0C914.3 0 868.7 0 823 0C777.3 0 731.7 0 686 0C640.3 0 594.7 0 548.8 0C503 0 457 0 411.2 0C365.3 0 319.7 0 274 0C228.3 0 182.7 0 137 0C91.3 0 45.7 0 22.8 0L0 0Z" fill="#eb5967"></path><path d="M0 131L22.8 122.8C45.7 114.7 91.3 98.3 137 90.8C182.7 83.3 228.3 84.7 274 90.5C319.7 96.3 365.3 106.7 411.2 108.2C457 109.7 503 102.3 548.8 101.2C594.7 100 640.3 105 686 112.3C731.7 119.7 777.3 129.3 823 127.2C868.7 125 914.3 111 937.2 104L960 97L960 0L937.2 0C914.3 0 868.7 0 823 0C777.3 0 731.7 0 686 0C640.3 0 594.7 0 548.8 0C503 0 457 0 411.2 0C365.3 0 319.7 0 274 0C228.3 0 182.7 0 137 0C91.3 0 45.7 0 22.8 0L0 0Z" fill="#da3f67"></path><path d="M0 57L22.8 53.7C45.7 50.3 91.3 43.7 137 40.5C182.7 37.3 228.3 37.7 274 44.8C319.7 52 365.3 66 411.2 71.8C457 77.7 503 75.3 548.8 71.7C594.7 68 640.3 63 686 59.2C731.7 55.3 777.3 52.7 823 51.2C868.7 49.7 914.3 49.3 937.2 49.2L960 49L960 0L937.2 0C914.3 0 868.7 0 823 0C777.3 0 731.7 0 686 0C640.3 0 594.7 0 548.8 0C503 0 457 0 411.2 0C365.3 0 319.7 0 274 0C228.3 0 182.7 0 137 0C91.3 0 45.7 0 22.8 0L0 0Z" fill="#c62368"></path></svg>